[Header]
FileType HTR
DataType HTRS
FileVersion 1
NumSegments 22
NumFrames 4
DataFrameRate 24
EulerRotationOrder ZYX
CalibrationUnits mm
RotationUnits Degrees
GlobalAxisofGravity Y
BoneLengthAxis Y
ScaleFactor 1.0
[SegmentNames&Hierarchy]
reference	GLOBAL
Hips	reference
Spine	Hips
Spine1	Spine
Neck	Spine1
Head	Neck
LeftShoulder	Spine1
LeftArm	LeftShoulder
LeftForeArm	LeftArm
LeftHand	LeftForeArm
RightShoulder	Spine1
RightArm	RightShoulder
RightForeArm	RightArm
RightHand	RightForeArm
LeftUpLeg	Hips
LeftLeg	LeftUpLeg
LeftFoot	LeftLeg
LeftToeBase	LeftFoot
RightUpLeg	Hips
RightLeg	RightUpLeg
RightFoot	RightLeg
RightToeBase	RightFoot
[BasePosition]
reference	0	0	0	0	0	0	1
Hips	0	0	0	0	0	0	1
Spine	0	0	0	0	-0	90	1
Spine1	0	0	0	0	0	0	1
Neck	0	0	0	-7.352327771	-7.352327771	90	1
Head	0	0	0	0	-0	90	1
LeftShoulder	0	0	0	0	0	0	1
LeftArm	0	0	0	0	0	0	1
LeftForeArm	0	0	0	0	0	0	1
LeftHand	0	0	0	0	0	0	1
RightShoulder	0	0	0	0	-0	180	1
RightArm	0	0	0	0	-0	180	1
RightForeArm	0	0	0	0	-0	180	1
RightHand	0	0	0	0	-0	180	1
LeftUpLeg	0	0	0	0	-0	-90	1
LeftLeg	0	0	0	0	-0	-90	1
LeftFoot	0	0	0	66.57146043	-66.57146043	-90	1
LeftToeBase	0	0	0	0	-90	0	1
RightUpLeg	0	0	0	0	-0	-90	1
RightLeg	0	0	0	0	-0	-90	1
RightFoot	0	0	0	66.57146043	-66.57146043	-90	1
RightToeBase	0	0	0	0	-90	0	1
[reference]
37	0	0	0	0	-0	0	1.0
38	0	0	0	0	-0	0	1.0
39	0	0	0	0	-0	0	1.0
40	0	0	0	0	-0	0	1.0
[Hips]
37	4.230520248	8.111983299	1.008805156	7.320028782	-73.41033173	-6.513048649	1.0
38	3.997823238	8.10015583	1.079435468	9.492077827	-75.13847351	-9.6052351	1.0
39	3.792668581	8.090948105	1.15294075	13.38606167	-75.47538757	-13.73206329	1.0
40	3.599705696	8.085547447	1.236226797	14.12691689	-75.74568176	-14.23294353	1.0
[Spine]
37	0	0.7457100153	0	-6.743876934	-0.5122264028	-89.15939331	1.0
38	0	0.7457100153	0	-6.45053196	-0.6064072847	-88.44784546	1.0
39	0	0.7457100153	0	-6.46212101	-0.9986673594	-87.77676392	1.0
40	0	0.7457100153	0	-6.523779392	-1.737666011	-87.98490906	1.0
[Spine1]
37	0	2.140589952	0	8.341812134	-0.3016257882	1.550676942	1.0
38	0	2.140589952	0	9.228189468	-0.326405853	1.679697514	1.0
39	0	2.140589952	0	10.14652157	-0.5473840237	1.91759336	1.0
40	0	2.140589952	0	10.03859329	-0.8284217119	2.391569138	1.0
[Neck]
37	0	2.32246995	0	-11.8333416	11.70252228	-90.96054077	1.0
38	0	2.32246995	0	-11.74287605	12.59464455	-90.91438293	1.0
39	0	2.32246995	0	-12.34711456	13.24891853	-90.89727783	1.0
40	0	2.32246995	0	-12.39591789	13.9260664	-90.94651794	1.0
[Head]
37	0	1.409579992	0.1818799973	-4.913267612	4.762144089	-92.56268311	1.0
38	0	1.409579992	0.1818799973	-5.360486031	5.671640396	-92.61654663	1.0
39	0	1.409579992	0.1818799973	-5.790453911	6.333026886	-92.5193634	1.0
40	0	1.409579992	0.1818799973	-5.840820313	7.034026146	-92.52317047	1.0
[LeftShoulder]
37	0.3668199778	1.946700096	-0.02662999928	-14.9970026	-13.78895664	-2.334747076	1.0
38	0.3668199778	1.946700096	-0.02662999928	-16.16449547	-14.36309338	-3.220451593	1.0
39	0.3668199778	1.946700096	-0.02662999928	-16.95049667	-14.74866867	-3.43158412	1.0
40	0.3668199778	1.946700096	-0.02662999928	-17.26636314	-15.2881546	-3.287731886	1.0
[LeftArm]
37	1.140689969	0	0	42.23236465	14.87803078	-73.5825882	1.0
38	1.140689969	0	0	45.95217133	12.18632793	-72.40809631	1.0
39	1.140689969	0	0	50.16866684	8.389195442	-71.67463684	1.0
40	1.140689969	0	0	52.43089294	5.586585045	-71.24703979	1.0
[LeftForeArm]
37	2.749800205	0	0	-12.95964718	-13.83313274	-0.4560880065	1.0
38	2.749800205	0	0	-10.88343239	-19.05997658	0.5701878667	1.0
39	2.749800205	0	0	-8.666650772	-24.78295898	1.6592834	1.0
40	2.749800205	0	0	-7.146283627	-31.98682022	3.231718063	1.0
[LeftHand]
37	2.295179844	0	0	-13.01154041	-5.7257061	-0.0728848055	1.0
38	2.295179844	0	0	-10.86662674	-8.098513603	1.103071451	1.0
39	2.295179844	0	0	-8.600205421	-10.91583633	3.114215374	1.0
40	2.295179844	0	0	-6.484999657	-12.44988728	2.430021286	1.0
[RightShoulder]
37	-0.3601199985	1.946700096	-0.02662999928	-8.335573196	3.098430157	174.6954193	1.0
38	-0.3601199985	1.946700096	-0.02662999928	-8.230681419	3.228638649	174.681366	1.0
39	-0.3601199985	1.946700096	-0.02662999928	-8.259890556	2.987430334	174.3791504	1.0
40	-0.3601199985	1.946700096	-0.02662999928	-7.788687229	2.804985523	174.0178833	1.0
[RightArm]
37	-1.140689969	0	0	57.71728134	3.525863886	-94.83150482	1.0
38	-1.140689969	0	0	53.55612946	3.271558046	-98.12992859	1.0
39	-1.140689969	0	0	49.40743637	2.391373158	-100.8710709	1.0
40	-1.140689969	0	0	43.24433136	1.220106125	-103.3645172	1.0
[RightForeArm]
37	-2.749800205	0	0	-3.260148048	12.9263382	174.2814636	1.0
38	-2.749800205	0	0	-1.096906543	11.80980682	176.7560577	1.0
39	-2.749800205	0	0	0.8991378546	10.93866158	178.3003998	1.0
40	-2.749800205	0	0	3.314893723	10.27933407	180.477356	1.0
[RightHand]
37	-2.295179844	0	0	-2.848778009	8.79146862	176.9190521	1.0
38	-2.295179844	0	0	-1.177262783	7.786039352	173.9189606	1.0
39	-2.295179844	0	0	0.5833082199	6.82884264	171.9961548	1.0
40	-2.295179844	0	0	2.792557478	6.056346893	170.9510956	1.0
[LeftUpLeg]
37	0.9094099998	0	0	-2.222037315	4.672751427	92.22229767	1.0
38	0.9094099998	0	0	-9.007385254	5.798924923	95.02435303	1.0
39	0.9094099998	0	0	-15.99490547	8.267445564	96.54910278	1.0
40	0.9094099998	0	0	-21.70064926	7.110860825	97.48284149	1.0
[LeftLeg]
37	0	-4.498080254	0	56.98297501	0.1921173036	73.56172943	1.0
38	0	-4.498080254	0	70.76454163	2.453321457	65.43360138	1.0
39	0	-4.498080254	0	80.44929504	1.893816948	55.03874207	1.0
40	0	-4.498080254	0	81.67403412	3.753451824	53.6367569	1.0
[LeftFoot]
37	0	-3.729400158	0	-53.86962891	100.0226288	-6.720916748	1.0
38	0	-3.729400158	0	-33.73014069	107.6047821	4.447906017	1.0
39	0	-3.729400158	0	-21.80029488	116.5961761	15.43249321	1.0
40	0	-3.729400158	0	-25.01482391	120.1416321	16.14926147	1.0
[LeftToeBase]
37	0	-0.5911099911	1.364109993	0	0	0	1.0
38	0	-0.5911099911	1.364109993	0	0	0	1.0
39	0	-0.5911099911	1.364109993	0	0	0	1.0
40	0	-0.5911099911	1.364109993	0	0	0	1.0
[RightUpLeg]
37	-0.9094099998	0	0	-23.66351509	-4.981403351	101.4225769	1.0
38	-0.9094099998	0	0	-23.18742943	-4.40563488	102.2047272	1.0
39	-0.9094099998	0	0	-21.93634415	-3.998559237	102.7504196	1.0
40	-0.9094099998	0	0	-19.73913956	-3.350807667	102.0785446	1.0
[RightLeg]
37	0	-4.498080254	0	39.08771896	2.030680656	80.33081055	1.0
38	0	-4.498080254	0	43.6003952	5.218365192	82.77341461	1.0
39	0	-4.498080254	0	45.09682846	6.07926178	83.85456848	1.0
40	0	-4.498080254	0	43.62796402	7.526758671	86.48970795	1.0
[RightFoot]
37	0	-3.729400158	0	43.50964355	66.18445587	98.13616943	1.0
38	0	-3.729400158	0	32.75414276	64.9099884	89.78829956	1.0
39	0	-3.729400158	0	27.85633659	64.02503204	86.78351593	1.0
40	0	-3.729400158	0	20.74773216	62.42152023	79.66117096	1.0
[RightToeBase]
37	0	-0.5911099911	1.364109993	0	0	0	1.0
38	0	-0.5911099911	1.364109993	0	0	0	1.0
39	0	-0.5911099911	1.364109993	0	0	0	1.0
40	0	-0.5911099911	1.364109993	0	0	0	1.0
[EndOfFile]
